# xmcd CD database file
#
# Track frame offsets:
#	150
#	10938
#	25178
#	39178
#	50593
#	63583
#	78033
#	91555
#	103730
#	114388
#	127233
#	141423
#	154095
#	168168
#
# Disc length: 2364 seconds
#
# Revision: 0
# Processed by: cddbd v1.4PL0 Copyright (c) Steve Scherf et al.
# Submitted via: CDex 1.40Beta9
#
DISCID=ab093a0e
DTITLE=Ray Charles - Blues Is My Middle Name
DYEAR=1900
DGENRE=Blues
TTITLE0=Sitting On Top Of The World
TTITLE1=Kiss Me Baby
TTITLE2=I'm Gonna Drown Myself
TTITLE3=All Alone Again
TTITLE4=Snow Is Fallin'
TTITLE5=Blues Is My Middle Name
TTITLE6=Oh Baby
TTITLE7=C.C. Rider
TTITLE8=Hey Now
TTITLE9=Going Down Slowly
TTITLE10=Walkin' and Talkin'
TTITLE11=I'm Glad For Your Sake
TTITLE12=Baby Let Me Hold Your Hand
TTITLE13=All To Myself Alone
EXTD=ID3G: 0
EXTT0=
EXTT1=
EXTT2=
EXTT3=
EXTT4=
EXTT5=
EXTT6=
EXTT7=
EXTT8=
EXTT9=
EXTT10=
EXTT11=
EXTT12=
EXTT13=
PLAYORDER=
